<svg width="85" height="85" xmlns="http://www.w3.org/2000/svg" xmlns:xlink="http://www.w3.org/1999/xlink" xml:space="preserve" overflow="hidden"><g transform="translate(-153 -144)"><path d="M195.5 152.854C176.913 152.849 161.84 167.913 161.835 186.5 161.829 205.087 176.893 220.16 195.481 220.165 214.068 220.171 229.14 205.107 229.146 186.519 229.146 186.516 229.146 186.512 229.146 186.509 229.156 167.932 214.104 152.864 195.527 152.854 195.518 152.854 195.509 152.854 195.5 152.854ZM195.5 218.394C177.891 218.399 163.611 204.128 163.606 186.519 163.6 168.909 177.871 154.63 195.481 154.624 213.09 154.619 227.37 168.89 227.375 186.499 227.375 186.503 227.375 186.507 227.375 186.512 227.357 204.11 213.098 218.373 195.5 218.396Z" stroke="#000000" stroke-width="2.65625"/><path d="M195.943 171.018 194.172 171.018 194.172 185.615 179.562 185.615 179.562 187.385 194.172 187.385 194.172 202.007 195.943 202.007 195.943 187.385 210.552 187.385 210.552 185.615 195.943 185.615 195.943 171.018Z" stroke="#000000" stroke-width="2.65625"/></g></svg>